PathFileType   4   (X/Y/Z)
DataRate	CameraRate	NumFrames	NumMarkers	Units	OrigDataRate	OrigDataStartFrame	OrigNumFrames
120.0	120.0	4	37	mm	120.0	21	164
Frame#	Time	midhip	hip_r	hip_l	knee_r	knee_l	ankle_r	ankle_l	midasis	asis_r	asis_l	psis_r	psis_l	epicondLat_r	epicondLat_l	epicondMed_r	epicondMed_l	malleolusLat_r	malleolusLat_l	malleolusMedv_r	malleolusMedv_l	neck	subclavicle_r	subclavicle_l	sternalnotch	xyphoidprocess	thighwand_r	thighwand_l	upperleg1_r	upperleg1_l	upperleg2_r	upperleg2_l	shankwand_r	shankwand_l	lowerleg1_r	lowerleg1_l	toe_r	toe_l
 	 	X1	Y1	Z1	X2	Y2	Z2	X3	Y3	Z3	X4	Y4	Z4	X5	Y5	Z5	X6	Y6	Z6	X7	Y7	Z7	X8	Y8	Z8	X9	Y9	Z9	X10	Y10	Z10	X11	Y11	Z11	X12	Y12	Z12	X13	Y13	Z13	X14	Y14	Z14	X15	Y15	Z15	X16	Y16	Z16	X17	Y17	Z17	X18	Y18	Z18	X19	Y19	Z19	X20	Y20	Z20	X21	Y21	Z21	X22	Y22	Z22	X23	Y23	Z23	X24	Y24	Z24	X25	Y25	Z25	X26	Y26	Z26	X27	Y27	Z27	X28	Y28	Z28	X29	Y29	Z29	X30	Y30	Z30	X31	Y31	Z31	X32	Y32	Z32	X33	Y33	Z33	X34	Y34	Z34	X35	Y35	Z35	X36	Y36	Z36	X37	Y37	Z37

	21	0.47500	802.891	741.005	-285.318	779.867	731.845	-224.524	793.975	743.943	-353.508	873.984	406.291	-187.604	758.341	428.461	-332.400	647.526	165.819	-158.457	778.872	70.487	-307.995	858.212	804.327	-274.987	847.268	794.943	-174.931	869.156	813.712	-375.044	700.924	844.508	-248.118	702.253	848.972	-302.481	870.889	411.595	-132.947	759.668	424.674	-386.752	900.600	394.624	-232.513	750.776	408.699	-293.770	642.206	175.182	-122.537	772.921	67.663	-344.404	653.903	165.016	-182.262	778.755	69.942	-277.978	729.360	1214.154	-282.792	832.105	1156.088	-230.444	842.411	1159.298	-306.912	822.883	1156.379	-272.079	851.699	1074.401	-269.207	941.650	549.858	-84.595	923.480	535.360	-342.820	857.924	576.660	-126.747	863.235	600.528	-380.944	885.070	495.500	-133.018	839.982	515.594	-377.164	709.122	274.123	-55.886	784.274	188.117	-427.416	689.073	238.323	-128.562	766.855	151.160	-352.990	686.825	77.202	-129.329	882.347	38.442	-320.061
	22	0.48333	806.545	741.222	-286.153	785.112	732.282	-223.643	797.502	743.697	-352.865	882.162	407.767	-188.994	760.506	428.476	-332.193	661.945	162.000	-160.390	779.168	70.471	-307.901	862.542	804.745	-275.526	852.937	795.896	-175.351	872.147	813.595	-375.702	704.870	844.633	-247.891	705.663	849.121	-302.315	879.516	412.817	-134.290	761.374	424.809	-386.562	909.431	396.127	-233.109	757.157	405.297	-292.836	656.165	171.352	-124.537	773.026	67.683	-344.281	668.589	160.860	-184.154	779.252	69.742	-277.842	733.460	1214.354	-283.032	836.182	1156.022	-230.888	844.499	1158.907	-307.059	825.875	1156.239	-272.004	854.203	1074.075	-269.601	949.164	552.436	-86.199	925.764	534.973	-343.724	864.505	577.869	-127.796	862.430	599.741	-381.400	892.976	497.185	-133.932	842.100	515.532	-377.435	720.024	272.003	-57.988	784.639	188.148	-427.314	701.420	235.375	-130.588	767.365	151.293	-352.807	705.202	76.240	-129.122	882.419	38.328	-320.172
	23	0.49167	810.255	741.428	-287.436	790.539	732.717	-222.660	801.034	743.438	-352.109	890.238	409.277	-190.271	762.687	428.464	-331.986	676.816	157.793	-162.434	779.465	70.450	-307.824	866.964	805.146	-276.059	858.834	796.841	-175.774	875.094	813.452	-376.344	709.069	844.727	-247.568	709.083	849.280	-302.095	888.006	414.072	-135.526	763.091	424.940	-386.371	916.845	397.741	-233.980	758.666	406.484	-292.221	670.483	167.126	-126.670	773.136	67.700	-344.174	683.667	156.403	-186.111	779.888	69.589	-277.741	737.531	1214.584	-283.245	840.343	1155.985	-231.326	850.716	1159.208	-307.956	831.151	1156.340	-273.050	859.653	1074.250	-270.214	956.514	555.050	-87.653	928.070	534.580	-344.602	870.723	579.142	-128.514	865.230	599.840	-382.110	900.225	498.746	-134.826	844.065	515.443	-377.699	730.901	269.612	-60.180	785.017	188.178	-427.212	713.867	232.193	-132.661	767.920	151.461	-352.655	723.784	75.026	-129.255	882.477	38.202	-320.280
	24	0.50000	813.882	741.579	-288.609	795.869	733.142	-221.657	804.426	743.175	-351.304	898.175	410.776	-191.413	764.862	428.429	-331.785	692.128	153.255	-164.571	779.751	70.425	-307.761	871.287	805.490	-276.574	864.663	797.723	-176.200	877.912	813.258	-376.948	713.253	844.834	-247.203	712.511	849.444	-301.824	896.337	415.333	-136.633	764.810	425.062	-386.181	922.812	399.374	-234.918	757.689	409.460	-291.751	685.165	162.543	-128.913	773.244	67.717	-344.084	699.199	151.668	-188.157	779.724	69.743	-277.751	741.542	1214.787	-283.436	844.439	1155.931	-231.729	851.969	1158.800	-308.210	833.701	1156.211	-272.843	861.649	1073.909	-270.761	963.687	557.663	-88.939	930.387	534.174	-345.442	876.827	580.676	-128.926	869.615	599.377	-383.007	906.917	500.184	-135.620	845.986	515.189	-377.984	741.804	266.935	-62.428	785.419	188.199	-427.112	726.556	228.672	-134.853	768.471	151.593	-352.526	742.544	73.583	-129.697	882.522	38.071	-320.386
